<?xml version="1.0" encoding="utf-8"?>
<!-- Generator: Adobe Illustrator 19.1.0, SVG Export Plug-In . SVG Version: 6.00 Build 0)  -->
<svg version="1.1" id="Layer_1" xmlns="http://www.w3.org/2000/svg" xmlns:xlink="http://www.w3.org/1999/xlink" x="0px" y="0px"
	 viewBox="0 0 200 200" style="enable-background:new 0 0 200 200;" xml:space="preserve">
<style type="text/css">
	.st0{fill:#343434;}
</style>
<g>
	<g>
		<path class="st0" d="M100.1,189.3c-1.2,0-2.5-0.3-3.6-0.8L7,147.8c-3.1-1.4-5.1-4.5-5.1-8V58.5c0-3.4,2-6.5,5.1-8L96.4,9.9
			c2.3-1,4.9-1,7.2,0l89.5,40.7c3.1,1.4,5.1,4.5,5.1,8v81.3c0,3.4-2,6.5-5.1,8l-89.5,40.7C102.5,189,101.3,189.3,100.1,189.3
			L100.1,189.3z M19.4,134.2l80.7,36.7l80.7-36.7V64.2l-80.7-36.7L19.4,64.2V134.2L19.4,134.2z"/>
	</g>
	<g>
		<path class="st0" d="M100.1,110.1c-1.2,0-2.5-0.3-3.6-0.8L7,68.7c-4.4-2-6.3-7.2-4.3-11.6c2-4.4,7.1-6.4,11.6-4.3l85.8,39l85.8-39
			c4.4-2,9.6,0,11.6,4.3c2,4.4,0.1,9.6-4.3,11.6l-89.5,40.7C102.5,109.9,101.3,110.1,100.1,110.1L100.1,110.1z"/>
	</g>
	<g>
		<path class="st0" d="M148.3,86c-0.6,0-1.2-0.1-1.8-0.4L57,44.9c-2.2-1-3.2-3.6-2.2-5.8c1-2.2,3.6-3.2,5.8-2.2l89.5,40.7
			c2.2,1,3.2,3.6,2.2,5.8C151.5,85,149.9,86,148.3,86L148.3,86z"/>
	</g>
	<g>
		<path class="st0" d="M100.1,186.1c-4.8,0-8.8-3.9-8.8-8.8v-67.4c0-4.8,3.9-8.8,8.8-8.8c4.8,0,8.8,3.9,8.8,8.8v67.4
			C108.8,182.2,104.9,186.1,100.1,186.1L100.1,186.1z"/>
	</g>
</g>
</svg>
