<?xml version="1.0" encoding="utf-8"?>
<!-- Generator: Adobe Illustrator 19.1.0, SVG Export Plug-In . SVG Version: 6.00 Build 0)  -->
<svg version="1.1" id="Layer_1" xmlns="http://www.w3.org/2000/svg" xmlns:xlink="http://www.w3.org/1999/xlink" x="0px" y="0px"
	 viewBox="0 0 200 200" style="enable-background:new 0 0 200 200;" xml:space="preserve">
<style type="text/css">
	.st0{fill:#343434;}
</style>
<g>
	<g>
		<path class="st0" d="M34.9,177.6c-4.4,0-8-3.6-8-8V20.2C27,10.2,35.1,2,45.1,2h111.3c10,0,18.2,8.2,18.2,18.2v126.2
			c0,10-8.2,18.2-18.2,18.2c-4.4,0-8-3.6-8-8c0-4.4,3.6-8,8-8c1.2,0,2.2-1,2.2-2.2V20.2c0-1.2-1-2.2-2.2-2.2H45.1
			c-1.2,0-2.2,1-2.2,2.2v149.4C42.9,174,39.3,177.6,34.9,177.6L34.9,177.6z"/>
	</g>
	<g>
		<path class="st0" d="M166.7,198h-115C38,198,27,186.9,27,173.3c0-13.6,11.1-24.7,24.7-24.7h103.3c4.4,0,8,3.6,8,8c0,4.4-3.6,8-8,8
			H51.6c-4.8,0-8.7,3.9-8.7,8.7c0,4.8,3.9,8.7,8.7,8.7h115c4.4,0,8,3.6,8,8C174.6,194.4,171.1,198,166.7,198L166.7,198z"/>
	</g>
	<g>
		<path class="st0" d="M62.1,158.1c-2.2,0-4-1.8-4-4V14.4c0-2.2,1.8-4,4-4c2.2,0,4,1.8,4,4v139.8C66.1,156.3,64.4,158.1,62.1,158.1
			L62.1,158.1z"/>
	</g>
</g>
</svg>
