<?xml version="1.0" encoding="utf-8"?>
<!-- Generator: Adobe Illustrator 19.1.0, SVG Export Plug-In . SVG Version: 6.00 Build 0)  -->
<svg version="1.1" id="Layer_1" xmlns="http://www.w3.org/2000/svg" xmlns:xlink="http://www.w3.org/1999/xlink" x="0px" y="0px"
	 viewBox="0 0 200 200" style="enable-background:new 0 0 200 200;" xml:space="preserve">
<style type="text/css">
	.st0{fill:#343434;}
</style>
<g>
	<g>
		<path class="st0" d="M125.4,192.9c-2.2,0-4-1.8-4-4v-42.1c0-2.2,1.8-4,4-4h42.1c2.2,0,4,1.8,4,4c0,2.2-1.8,4-4,4h-38.1v38.1
			C129.5,191.1,127.7,192.9,125.4,192.9L125.4,192.9z"/>
	</g>
	<g>
		<path class="st0" d="M125.4,196.9c-2.1,0-4.1-0.8-5.7-2.4c-3.1-3.1-3.1-8.3,0-11.4l42.1-42.1c3.1-3.1,8.3-3.1,11.4,0
			c3.2,3.1,3.2,8.3,0,11.4l-42.1,42.1C129.6,196.1,127.5,196.9,125.4,196.9L125.4,196.9z"/>
	</g>
	<g>
		<path class="st0" d="M145.6,196.9c-2.1,0-4.1-0.8-5.7-2.4c-3.1-3.1-3.1-8.3,0-11.4l22.2-22.2c3.1-3.1,8.3-3.1,11.4,0
			c3.1,3.2,3.1,8.3,0,11.4l-22.2,22.2C149.7,196.1,147.7,196.9,145.6,196.9L145.6,196.9z"/>
	</g>
	<g>
		<path class="st0" d="M106,75.4H64.8c-2.2,0-4-1.8-4-4c0-2.2,1.8-4,4-4H106c2.2,0,4,1.8,4,4C110,73.6,108.2,75.4,106,75.4L106,75.4
			z"/>
	</g>
	<g>
		<path class="st0" d="M133.2,96.6H64.8c-2.2,0-4-1.8-4-4c0-2.2,1.8-4,4-4h68.4c2.2,0,4,1.8,4,4C137.2,94.8,135.4,96.6,133.2,96.6
			L133.2,96.6z"/>
	</g>
	<g>
		<path class="st0" d="M133.2,117.9H64.8c-2.2,0-4-1.8-4-4c0-2.2,1.8-4,4-4h68.4c2.2,0,4,1.8,4,4
			C137.2,116.1,135.4,117.9,133.2,117.9L133.2,117.9z"/>
	</g>
	<g>
		<path class="st0" d="M93.4,139.1H64.8c-2.2,0-4-1.8-4-4c0-2.2,1.8-4,4-4h28.7c2.2,0,4,1.8,4,4C97.4,137.3,95.6,139.1,93.4,139.1
			L93.4,139.1z"/>
	</g>
	<g>
		<path class="st0" d="M167.6,196.9h-133c-4.5,0-8.1-3.6-8.1-8.1V17.5c0-4.5,3.6-8.1,8.1-8.1h133c4.5,0,8.1,3.6,8.1,8.1v171.3
			C175.6,193.3,172,196.9,167.6,196.9L167.6,196.9z M42.6,180.8h116.9V25.6H42.6V180.8L42.6,180.8z"/>
	</g>
	<g>
		<path class="st0" d="M128.3,35.7H73.8c-9.4,0-17.1-7.7-17.1-17.1c0-9.4,7.7-17.1,17.1-17.1h54.4c9.4,0,17.1,7.7,17.1,17.1
			C145.4,28,137.7,35.7,128.3,35.7L128.3,35.7z M73.8,17.5c-0.6,0-1,0.4-1,1c0,0.6,0.5,1,1,1h54.4c0.6,0,1-0.4,1-1c0-0.6-0.4-1-1-1
			H73.8L73.8,17.5z"/>
	</g>
</g>
</svg>
