<?xml version="1.0" encoding="utf-8"?>
<!-- Generator: Adobe Illustrator 19.1.0, SVG Export Plug-In . SVG Version: 6.00 Build 0)  -->
<svg version="1.1" id="Layer_1" xmlns="http://www.w3.org/2000/svg" xmlns:xlink="http://www.w3.org/1999/xlink" x="0px" y="0px"
	 viewBox="0 0 200 200" style="enable-background:new 0 0 200 200;" xml:space="preserve">
<style type="text/css">
	.st0{fill:#343434;}
</style>
<g>
	<g>
		<g>
			<path class="st0" d="M42.7,164.3c-2.2,0-4.3-0.9-5.8-2.4c-1.7-1.7-2.5-4-2.4-6.3l2.1-36.3c0.1-2,1-3.9,2.4-5.3L147.2,5.8
				c1.5-1.5,3.6-2.4,5.8-2.4l0,0c2.2,0,4.3,0.9,5.8,2.4L193,39.9c1.5,1.5,2.4,3.6,2.4,5.8c0,2.2-0.9,4.3-2.4,5.8L84.8,159.8
				c-1.4,1.4-3.3,2.3-5.3,2.4l-36.3,2.1C43.1,164.3,42.9,164.3,42.7,164.3L42.7,164.3z M52.9,123.4l-1.4,23.9l23.9-1.4L175.5,45.8
				L153,23.3L52.9,123.4L52.9,123.4z"/>
		</g>
		<g>
			<path class="st0" d="M167.9,65.7c-1.1,0-2.1-0.4-2.9-1.2l-30.7-30.7c-1.6-1.6-1.6-4.2,0-5.8c1.6-1.6,4.2-1.6,5.8,0l30.7,30.7
				c1.6,1.6,1.6,4.2,0,5.8C170,65.3,168.9,65.7,167.9,65.7L167.9,65.7z"/>
		</g>
		<path class="st0" d="M48.4,130.7c-0.7,0-1.4,0-2.1,0.1c-0.7,0.1-1.3,0.3-1.9,0.4l-1.5,25.1l24.1-1.5c0.2-0.9,0.4-1.8,0.6-2.8
			C68.7,139.8,60.2,130.7,48.4,130.7L48.4,130.7z"/>
	</g>
	<g>
		<path class="st0" d="M190.3,198.6H10.2c-4.6,0-8.2-3.7-8.2-8.2V10.3C1.9,5.7,5.6,2,10.2,2h89.4c4.6,0,8.2,3.7,8.2,8.2
			c0,4.6-3.7,8.2-8.2,8.2H18.4v163.6H182V101c0-4.6,3.7-8.2,8.2-8.2c4.6,0,8.2,3.7,8.2,8.2v89.4
			C198.5,194.9,194.8,198.6,190.3,198.6L190.3,198.6z"/>
	</g>
</g>
</svg>
