<?xml version="1.0" encoding="utf-8"?>
<!-- Generator: Adobe Illustrator 19.1.0, SVG Export Plug-In . SVG Version: 6.00 Build 0)  -->
<svg version="1.1" id="Layer_1" xmlns="http://www.w3.org/2000/svg" xmlns:xlink="http://www.w3.org/1999/xlink" x="0px" y="0px"
	 viewBox="0 0 200 200" style="enable-background:new 0 0 200 200;" xml:space="preserve">
<style type="text/css">
	.st0{fill:#343434;}
</style>
<g>
	<g>
		<g>
			<path class="st0" d="M190,198.2H10.9c-4.5,0-8.2-3.7-8.2-8.2V10.8c0-4.5,3.7-8.2,8.2-8.2H190c4.5,0,8.2,3.7,8.2,8.2v179.1
				C198.2,194.5,194.6,198.2,190,198.2L190,198.2z M19.1,181.7h162.7V19H19.1V181.7L19.1,181.7z"/>
		</g>
		<g>
			<path class="st0" d="M187.1,62.9H13.8c-2.3,0-4.1-1.8-4.1-4.1s1.8-4.1,4.1-4.1h173.3c2.3,0,4.1,1.8,4.1,4.1
				S189.3,62.9,187.1,62.9L187.1,62.9z"/>
		</g>
		<path class="st0" d="M40,26.7c-5.7,0-10.4,4.6-10.4,10.4c0,5.7,4.6,10.4,10.4,10.4c5.7,0,10.4-4.6,10.4-10.4
			C50.4,31.4,45.8,26.7,40,26.7L40,26.7z"/>
		<path class="st0" d="M68.1,26.7c-5.7,0-10.4,4.6-10.4,10.4c0,5.7,4.6,10.4,10.4,10.4c5.7,0,10.4-4.6,10.4-10.4
			C78.5,31.4,73.8,26.7,68.1,26.7L68.1,26.7z"/>
		<path class="st0" d="M96.2,26.7c-5.7,0-10.4,4.6-10.4,10.4c0,5.7,4.6,10.4,10.4,10.4c5.7,0,10.4-4.6,10.4-10.4
			C106.6,31.4,101.9,26.7,96.2,26.7L96.2,26.7z"/>
	</g>
	<g>
		<g>
			<path class="st0" d="M100.4,95.9H44.2c-2.3,0-4.1-1.8-4.1-4.1c0-2.3,1.8-4.1,4.1-4.1h56.2c2.3,0,4.1,1.8,4.1,4.1
				C104.6,94,102.7,95.9,100.4,95.9L100.4,95.9z"/>
		</g>
		<g>
			<path class="st0" d="M100.4,121.9H44.2c-2.3,0-4.1-1.8-4.1-4.1c0-2.3,1.8-4.1,4.1-4.1h56.2c2.3,0,4.1,1.8,4.1,4.1
				C104.6,120.1,102.7,121.9,100.4,121.9L100.4,121.9z"/>
		</g>
		<g>
			<path class="st0" d="M100.4,148H44.2c-2.3,0-4.1-1.8-4.1-4.1c0-2.3,1.8-4.1,4.1-4.1h56.2c2.3,0,4.1,1.8,4.1,4.1
				C104.6,146.1,102.7,148,100.4,148L100.4,148z"/>
		</g>
		<g>
			<path class="st0" d="M156.7,148H121c-2.3,0-4.1-1.8-4.1-4.1V91.7c0-2.3,1.8-4.1,4.1-4.1h35.6c2.3,0,4.1,1.8,4.1,4.1v52.1
				C160.8,146.1,158.9,148,156.7,148L156.7,148z M125.1,139.7h27.4V95.9h-27.4V139.7L125.1,139.7z"/>
		</g>
	</g>
</g>
</svg>
