<?xml version="1.0" encoding="utf-8"?>
<!-- Generator: Adobe Illustrator 19.1.0, SVG Export Plug-In . SVG Version: 6.00 Build 0)  -->
<svg version="1.1" id="Layer_1" xmlns="http://www.w3.org/2000/svg" xmlns:xlink="http://www.w3.org/1999/xlink" x="0px" y="0px"
	 viewBox="0 0 200 200" style="enable-background:new 0 0 200 200;" xml:space="preserve">
<style type="text/css">
	.st0{fill:#FFFFFF;}
</style>
<g>
	<g>
		<g>
			<path class="st0" d="M99.7,107.2c-1.7,0-3.5-0.5-4.9-1.6L49.6,72.7c-3.8-2.7-4.6-8-1.9-11.7c2.7-3.8,8-4.6,11.7-1.9l40.2,29.2
				l40.2-29.2c3.8-2.7,9-1.9,11.7,1.9c2.7,3.8,1.9,9-1.9,11.7l-45.1,32.8C103.1,106.6,101.4,107.2,99.7,107.2L99.7,107.2z"/>
		</g>
		<g>
			<path class="st0" d="M99.7,107.2c-4.6,0-8.4-3.8-8.4-8.4V8.4C91.3,3.8,95,0,99.7,0c4.6,0,8.4,3.8,8.4,8.4v90.4
				C108.1,103.4,104.3,107.2,99.7,107.2L99.7,107.2z"/>
		</g>
	</g>
	<g>
		<path class="st0" d="M187.9,198.2H11.4c-4.6,0-8.4-3.8-8.4-8.4v-59.5c0-4.6,3.8-8.4,8.4-8.4h54.6c4.6,0,8.4,3.8,8.4,8.4v11.9h50.4
			v-11.9c0-4.6,3.8-8.4,8.4-8.4h54.6c4.6,0,8.4,3.8,8.4,8.4v59.5C196.3,194.4,192.6,198.2,187.9,198.2L187.9,198.2z M19.8,181.4
			h159.7v-42.7h-37.8v3.5c0,9.3-7.5,16.8-16.8,16.8H74.5c-9.3,0-16.8-7.5-16.8-16.8v-3.5H19.8V181.4L19.8,181.4z"/>
	</g>
	<g>
		<g>
			<g>
				<path class="st0" d="M11.4,138.7c-2.1,0-4.2-0.8-5.8-2.4c-3.3-3.2-3.4-8.6-0.2-11.9l34-35c3.3-3.3,8.6-3.4,11.9-0.2
					c3.3,3.2,3.4,8.6,0.2,11.9l-34,35C15.8,137.8,13.6,138.7,11.4,138.7L11.4,138.7z"/>
			</g>
		</g>
		<g>
			<g>
				<path class="st0" d="M187.9,138.7c-2.2,0-4.4-0.9-6-2.6l-34-35c-3.2-3.3-3.2-8.7,0.2-11.9c3.3-3.2,8.7-3.2,11.9,0.2l34,35
					c3.2,3.3,3.2,8.7-0.2,11.9C192.1,137.9,190,138.7,187.9,138.7L187.9,138.7z"/>
			</g>
		</g>
	</g>
</g>
</svg>
