<?xml version="1.0" encoding="utf-8"?>
<!-- Generator: Adobe Illustrator 19.1.0, SVG Export Plug-In . SVG Version: 6.00 Build 0)  -->
<svg version="1.1" id="Layer_1" xmlns="http://www.w3.org/2000/svg" xmlns:xlink="http://www.w3.org/1999/xlink" x="0px" y="0px"
	 viewBox="0 0 200 200" style="enable-background:new 0 0 200 200;" xml:space="preserve">
<style type="text/css">
	.st0{fill:#343434;}
</style>
<g>
	<g>
		<g>
			<path class="st0" d="M16.8,197.8c-1.5,0-3-0.5-4.3-1.3c-2-1.4-3.2-3.7-3.2-6.2V41.5c0-3.1,1.9-5.9,4.9-7l84-31.7
				c2.3-0.9,4.9-0.5,6.9,0.9c2,1.4,3.2,3.7,3.2,6.2v148.8c0,3.1-1.9,5.9-4.9,7l-84,31.7C18.6,197.7,17.7,197.8,16.8,197.8
				L16.8,197.8z M24.3,46.7v132.8l69-26.1V20.7L24.3,46.7L24.3,46.7z"/>
		</g>
		<g>
			<path class="st0" d="M34.2,77.7c-1.5,0-2.9-0.9-3.5-2.4c-0.7-1.9,0.2-4.1,2.2-4.8L83,51.5c2-0.7,4.1,0.2,4.8,2.2
				c0.7,1.9-0.2,4.1-2.2,4.8L35.5,77.5C35,77.6,34.6,77.7,34.2,77.7L34.2,77.7z"/>
		</g>
		<g>
			<path class="st0" d="M34.2,126c-1.5,0-2.9-0.9-3.5-2.4c-0.7-1.9,0.2-4.1,2.2-4.8L83,99.8c2-0.7,4.1,0.2,4.8,2.2
				c0.7,1.9-0.2,4.1-2.2,4.8l-50.1,18.9C35,125.9,34.6,126,34.2,126L34.2,126z"/>
		</g>
		<g>
			<path class="st0" d="M34.2,150.2c-1.5,0-2.9-0.9-3.5-2.4c-0.7-1.9,0.2-4.1,2.2-4.8L83,124c2-0.7,4.1,0.2,4.8,2.2
				c0.7,1.9-0.2,4.1-2.2,4.8l-50.2,18.9C35,150.1,34.6,150.2,34.2,150.2L34.2,150.2z"/>
		</g>
		<g>
			<path class="st0" d="M34.2,101.9c-1.5,0-2.9-0.9-3.5-2.4c-0.7-1.9,0.2-4.1,2.2-4.8L83,75.7c2-0.7,4.1,0.2,4.8,2.2
				c0.7,1.9-0.2,4.1-2.2,4.8l-50.1,18.9C35,101.8,34.6,101.9,34.2,101.9L34.2,101.9z"/>
		</g>
	</g>
	<g>
		<g>
			<path class="st0" d="M154,182.4c-2.1,0-3.8-1.7-3.8-3.8v-43.5c0-1.2,0.6-2.4,1.6-3.1c1-0.7,2.3-0.9,3.5-0.4l30.9,11.7
				c1.9,0.7,2.9,2.9,2.2,4.8c-0.7,1.9-2.9,2.9-4.8,2.2l-25.8-9.7v38.1C157.7,180.7,156,182.4,154,182.4L154,182.4z"/>
		</g>
		<g>
			<path class="st0" d="M154,186.2c-0.9,0-1.8-0.2-2.7-0.5l-53.1-20.1c-2.9-1.1-4.9-3.9-4.9-7V9.8c0-2.5,1.2-4.8,3.2-6.2
				c2-1.4,4.6-1.7,6.9-0.9l84,31.7c2.9,1.1,4.9,3.9,4.9,7l0,105.3c0,1.9-0.8,3.8-2.1,5.2l-30.9,31.8
				C157.9,185.4,156,186.2,154,186.2L154,186.2z M108.3,153.4l43.7,16.5l25.3-26.1l0-97.1l-69-26.1V153.4L108.3,153.4z"/>
		</g>
		<g>
			<path class="st0" d="M169.2,78.4c-0.4,0-0.9-0.1-1.3-0.2l-50.1-18.9c-1.9-0.7-2.9-2.9-2.2-4.8c0.7-1.9,2.9-2.9,4.8-2.2l50.1,18.9
				c1.9,0.7,2.9,2.9,2.2,4.8C172.1,77.4,170.7,78.4,169.2,78.4L169.2,78.4z"/>
		</g>
		<g>
			<path class="st0" d="M169.2,126.7c-0.4,0-0.9-0.1-1.3-0.2l-50.1-18.9c-1.9-0.7-2.9-2.9-2.2-4.8c0.7-1.9,2.9-2.9,4.8-2.2
				l50.1,18.9c1.9,0.7,2.9,2.9,2.2,4.8C172.1,125.7,170.7,126.7,169.2,126.7L169.2,126.7z"/>
		</g>
		<g>
			<path class="st0" d="M169.2,102.5c-0.4,0-0.9-0.1-1.3-0.2l-50.1-18.9c-1.9-0.7-2.9-2.9-2.2-4.8c0.7-1.9,2.9-2.9,4.8-2.2
				l50.1,18.9c1.9,0.7,2.9,2.9,2.2,4.8C172.1,101.6,170.7,102.5,169.2,102.5L169.2,102.5z"/>
		</g>
	</g>
</g>
</svg>
