<?xml version="1.0" encoding="utf-8"?>
<!-- Generator: Adobe Illustrator 19.1.0, SVG Export Plug-In . SVG Version: 6.00 Build 0)  -->
<svg version="1.1" id="Layer_1" xmlns="http://www.w3.org/2000/svg" xmlns:xlink="http://www.w3.org/1999/xlink" x="0px" y="0px"
	 viewBox="0 0 25 25" style="enable-background:new 0 0 25 25;" xml:space="preserve">
<style type="text/css">
	.st0{fill:#FFFFFF;}
</style>
<g>
	<g>
		<path class="st0" d="M10.8,9.4c-2.4,0-4.2-2.2-4.2-4.7C6.6,2,8.5,0,10.8,0C13.1,0,15,2.2,15,4.7C15.1,7.3,13.1,9.4,10.8,9.4
			L10.8,9.4z M10.8,1.7c-1.3,0-2.5,1.3-2.5,3s1.1,3,2.5,3c1.4,0,2.5-1.3,2.5-3S12.2,1.7,10.8,1.7L10.8,1.7z"/>
	</g>
	<g>
		<path class="st0" d="M17.2,25c-3,0-5.4-2.5-5.4-5.4s2.5-5.4,5.4-5.4s5.4,2.5,5.4,5.4C22.8,22.5,20.3,25,17.2,25L17.2,25z M17.2,15
			c-2.6,0-4.6,2-4.6,4.6s2,4.6,4.6,4.6s4.6-2,4.6-4.6S19.8,15,17.2,15L17.2,15z"/>
	</g>
	<g>
		<path class="st0" d="M12.2,20.3H4.3c-0.5,0-0.8-0.4-0.9-0.8l-0.3-4.2C3,13.7,4.2,12,5.7,11.4c3.3-1.1,6.8-1.1,10,0
			c1.1,0.4,2.2,1.5,2.5,2.8l-1.7,0.5c-0.2-0.7-0.7-1.3-1.3-1.5c-2.9-1-5.9-1-8.8,0c-0.8,0.3-1.4,1.4-1.4,2L5,18.5h7.2V20.3
			L12.2,20.3z"/>
	</g>
	<g>
		<path class="st0" d="M17.2,22.8c-0.5,0-0.9-0.4-0.9-0.9v-4.8c0-0.5,0.4-0.9,0.9-0.9s0.9,0.4,0.9,0.9V22
			C18.2,22.4,17.8,22.8,17.2,22.8L17.2,22.8z"/>
	</g>
	<g>
		<path class="st0" d="M19.7,20.4h-4.9c-0.5,0-0.9-0.4-0.9-0.9c0-0.5,0.4-0.9,0.9-0.9h4.9c0.5,0,0.9,0.4,0.9,0.9
			C20.6,20,20.2,20.4,19.7,20.4L19.7,20.4z"/>
	</g>
</g>
</svg>
