<?xml version="1.0" encoding="utf-8"?>
<!-- Generator: Adobe Illustrator 19.1.0, SVG Export Plug-In . SVG Version: 6.00 Build 0)  -->
<svg version="1.1" id="Layer_1" xmlns="http://www.w3.org/2000/svg" xmlns:xlink="http://www.w3.org/1999/xlink" x="0px" y="0px"
	 viewBox="0 0 200 200" style="enable-background:new 0 0 200 200;" xml:space="preserve">
<style type="text/css">
	.st0{fill:#343434;}
</style>
<g>
	<g>
		<g>
			<path class="st0" d="M190.1,197.8H10.6c-4.6,0-8.2-3.7-8.2-8.2V10.1c0-4.6,3.7-8.2,8.2-8.2h179.5c4.6,0,8.2,3.7,8.2,8.2v179.5
				C198.3,194.1,194.6,197.8,190.1,197.8L190.1,197.8z M18.8,181.3h163v-163h-163V181.3L18.8,181.3z"/>
		</g>
		<g>
			<path class="st0" d="M187.1,62.3H13.5c-2.3,0-4.1-1.8-4.1-4.1c0-2.3,1.9-4.1,4.1-4.1h173.6c2.3,0,4.1,1.8,4.1,4.1
				C191.3,60.4,189.4,62.3,187.1,62.3L187.1,62.3z"/>
		</g>
		<path class="st0" d="M39.8,26.1c-5.7,0-10.4,4.7-10.4,10.4c0,5.7,4.7,10.4,10.4,10.4s10.4-4.6,10.4-10.4
			C50.2,30.7,45.5,26.1,39.8,26.1L39.8,26.1z"/>
		<path class="st0" d="M67.9,26.1c-5.7,0-10.4,4.7-10.4,10.4c0,5.7,4.7,10.4,10.4,10.4c5.7,0,10.4-4.6,10.4-10.4
			C78.3,30.7,73.7,26.1,67.9,26.1L67.9,26.1z"/>
		<path class="st0" d="M96.1,26.1c-5.7,0-10.4,4.7-10.4,10.4c0,5.7,4.6,10.4,10.4,10.4c5.7,0,10.4-4.6,10.4-10.4
			C106.5,30.7,101.8,26.1,96.1,26.1L96.1,26.1z"/>
	</g>
	<g>
		<path class="st0" d="M187.1,93.2H13.5c-2.3,0-4.1-1.8-4.1-4.1c0-2.3,1.9-4.1,4.1-4.1h173.6c2.3,0,4.1,1.8,4.1,4.1
			C191.3,91.3,189.4,93.2,187.1,93.2L187.1,93.2z"/>
	</g>
	<g>
		<g>
			<path class="st0" d="M149.1,193.9c-1.7,0-3.1-1.4-3.1-3.1V90.4c0-1.7,1.4-3.1,3.1-3.1s3.1,1.4,3.1,3.1v100.4
				C152.2,192.5,150.8,193.9,149.1,193.9L149.1,193.9z"/>
		</g>
		<g>
			<path class="st0" d="M51.6,193.9c-1.7,0-3.1-1.4-3.1-3.1V90.4c0-1.7,1.4-3.1,3.1-3.1c1.7,0,3.1,1.4,3.1,3.1v100.4
				C54.7,192.5,53.3,193.9,51.6,193.9L51.6,193.9z"/>
		</g>
	</g>
</g>
</svg>
