<?xml version="1.0" encoding="utf-8"?>
<!-- Generator: Adobe Illustrator 19.1.0, SVG Export Plug-In . SVG Version: 6.00 Build 0)  -->
<svg version="1.1" id="Layer_1" xmlns="http://www.w3.org/2000/svg" xmlns:xlink="http://www.w3.org/1999/xlink" x="0px" y="0px"
	 viewBox="0 0 30 30" style="enable-background:new 0 0 30 30;" xml:space="preserve">
<style type="text/css">
	.st0{fill:#FFF;}
</style>
<g>
	<g>
		<path class="st0" d="M28.4,28H1.6c-0.7,0-1.3-0.6-1.3-1.3V5.3C0.3,4.6,0.9,4,1.6,4h26.9c0.7,0,1.3,0.6,1.3,1.3v21.4
			C29.8,27.4,29.2,28,28.4,28L28.4,28z M2.9,25.4h24.2V6.6H2.9V25.4L2.9,25.4z"/>
	</g>
	<g>
		<path class="st0" d="M23.4,8.8c-0.7,0-1.3-0.6-1.3-1.3V3.1c0-0.7,0.6-1.3,1.3-1.3c0.7,0,1.3,0.6,1.3,1.3v4.4
			C24.7,8.2,24.2,8.8,23.4,8.8L23.4,8.8z"/>
	</g>
	<g>
		<path class="st0" d="M6.7,8.8C6,8.8,5.4,8.2,5.4,7.5V3.1c0-0.7,0.6-1.3,1.3-1.3c0.7,0,1.3,0.6,1.3,1.3v4.4
			C8.1,8.2,7.5,8.8,6.7,8.8L6.7,8.8z"/>
	</g>
	<g>
		<path class="st0" d="M28.4,13H1.8c-0.4,0-0.7-0.3-0.7-0.7c0-0.4,0.3-0.7,0.7-0.7h26.6c0.4,0,0.7,0.3,0.7,0.7
			C29,12.8,28.7,13,28.4,13L28.4,13z"/>
	</g>
	<polygon class="st0" points="7.7,15.7 5.2,15.7 5.2,18.2 7.7,18.2 7.7,15.7 	"/>
	<polygon class="st0" points="12.1,15.7 9.6,15.7 9.6,18.2 12.1,18.2 12.1,15.7 	"/>
	<polygon class="st0" points="16.5,15.7 14,15.7 14,18.2 16.5,18.2 16.5,15.7 	"/>
	<polygon class="st0" points="20.9,15.7 18.3,15.7 18.3,18.2 20.9,18.2 20.9,15.7 	"/>
	<polygon class="st0" points="25.3,15.7 22.7,15.7 22.7,18.2 25.3,18.2 25.3,15.7 	"/>
	<polygon class="st0" points="7.7,19.8 5.2,19.8 5.2,22.3 7.7,22.3 7.7,19.8 	"/>
	<polygon class="st0" points="12.1,19.8 9.6,19.8 9.6,22.3 12.1,22.3 12.1,19.8 	"/>
	<polygon class="st0" points="16.5,19.8 14,19.8 14,22.3 16.5,22.3 16.5,19.8 	"/>
	<polygon class="st0" points="20.9,19.8 18.3,19.8 18.3,22.3 20.9,22.3 20.9,19.8 	"/>
	<polygon class="st0" points="25.3,19.8 22.7,19.8 22.7,22.3 25.3,22.3 25.3,19.8 	"/>
</g>
</svg>
