<?xml version="1.0" encoding="utf-8"?>
<!-- Generator: Adobe Illustrator 19.1.0, SVG Export Plug-In . SVG Version: 6.00 Build 0)  -->
<svg version="1.1" id="Layer_1" xmlns="http://www.w3.org/2000/svg" xmlns:xlink="http://www.w3.org/1999/xlink" x="0px" y="0px"
	 viewBox="0 0 200 200" style="enable-background:new 0 0 200 200;" xml:space="preserve">
<style type="text/css">
	.st0{fill:#343434;}
</style>
<g>
	<g>
		<path class="st0" d="M167.1,198.3H32.9c-4.5,0-8.1-3.6-8.1-8.1v-173c0-4.5,3.6-8.1,8.1-8.1h134.3c4.5,0,8.1,3.6,8.1,8.1v173
			C175.3,194.6,171.6,198.3,167.1,198.3L167.1,198.3z M41,182h118V25.3H41V182L41,182z"/>
	</g>
	<g>
		<path class="st0" d="M127.5,35.5H72.5c-9.5,0-17.3-7.8-17.3-17.3c0-9.5,7.8-17.3,17.3-17.3h54.9c9.5,0,17.3,7.8,17.3,17.3
			C144.8,27.7,137,35.5,127.5,35.5L127.5,35.5z M72.5,17.2c-0.6,0-1,0.5-1,1c0,0.6,0.5,1,1,1h54.9c0.6,0,1-0.5,1-1c0-0.6-0.4-1-1-1
			H72.5L72.5,17.2z"/>
	</g>
	<g>
		<path class="st0" d="M72.3,63.1h-9.4c-2.1,0-3.8,1.7-3.8,3.8v9.4c0,2.1,1.7,3.8,3.8,3.8h9.4c2.1,0,3.8-1.7,3.8-3.8v-9.4
			C76.1,64.8,74.4,63.1,72.3,63.1L72.3,63.1z"/>
		<g>
			<path class="st0" d="M140.9,75.7H88.6c-2.2,0-4.1-1.8-4.1-4.1c0-2.2,1.8-4.1,4.1-4.1h52.3c2.3,0,4.1,1.8,4.1,4.1
				C144.9,73.8,143.1,75.7,140.9,75.7L140.9,75.7z"/>
		</g>
		<path class="st0" d="M72.3,119h-9.4c-2.1,0-3.8,1.7-3.8,3.8v9.4c0,2.1,1.7,3.8,3.8,3.8h9.4c2.1,0,3.8-1.7,3.8-3.8v-9.4
			C76.1,120.7,74.4,119,72.3,119L72.3,119z"/>
		<g>
			<path class="st0" d="M140.9,131.5H88.6c-2.2,0-4.1-1.8-4.1-4.1c0-2.2,1.8-4.1,4.1-4.1h52.3c2.3,0,4.1,1.8,4.1,4.1
				C144.9,129.7,143.1,131.5,140.9,131.5L140.9,131.5z"/>
		</g>
		<path class="st0" d="M72.3,91.1h-9.4c-2.1,0-3.8,1.7-3.8,3.8v9.4c0,2.1,1.7,3.8,3.8,3.8h9.4c2.1,0,3.8-1.7,3.8-3.8v-9.4
			C76.1,92.7,74.4,91.1,72.3,91.1L72.3,91.1z"/>
		<g>
			<path class="st0" d="M140.9,103.6H88.6c-2.2,0-4.1-1.8-4.1-4.1c0-2.2,1.8-4.1,4.1-4.1h52.3c2.3,0,4.1,1.8,4.1,4.1
				C144.9,101.8,143.1,103.6,140.9,103.6L140.9,103.6z"/>
		</g>
	</g>
</g>
</svg>
