<?xml version="1.0" encoding="utf-8"?>
<!-- Generator: Adobe Illustrator 19.1.0, SVG Export Plug-In . SVG Version: 6.00 Build 0)  -->
<svg version="1.1" id="Layer_1" xmlns="http://www.w3.org/2000/svg" xmlns:xlink="http://www.w3.org/1999/xlink" x="0px" y="0px"
	 viewBox="-49 141 512 512" style="enable-background:new -49 141 512 512;" xml:space="preserve">
<style type="text/css">
	.st0{fill:#FFFFFF;}
</style>
<g id="facebook">
	<path class="st0" d="M229.5,360.5v-27c0-12.2,2.9-18,21.9-18h23.1v-45h-39c-48.5,0-64,21.6-64,59.7v30.3h-33v46h33v136h58v-136
		h40.2l5.4-46H229.5z"/>
	<path class="st0" d="M205.5,157.5c-132,0-239,107-239,239s107,239,239,239s239-107,239-239S337.5,157.5,205.5,157.5z M353.5,542.5
		c-39.3,39.3-91.6,61-147.3,61S98.3,581.8,59,542.5S-2,450.9-2,395.3S19.7,287.3,59,248s91.6-61,147.3-61s107.9,21.7,147.3,61
		s61,91.6,61,147.3S392.8,503.2,353.5,542.5z"/>
</g>
</svg>
