<?xml version="1.0" encoding="utf-8"?>
<!-- Generator: Adobe Illustrator 19.1.0, SVG Export Plug-In . SVG Version: 6.00 Build 0)  -->
<svg version="1.1" id="Layer_1" xmlns="http://www.w3.org/2000/svg" xmlns:xlink="http://www.w3.org/1999/xlink" x="0px" y="0px"
	 viewBox="0 0 200 200" style="enable-background:new 0 0 200 200;" xml:space="preserve">
<style type="text/css">
	.st0{fill:#343434;}
</style>
<g>
	<g>
		<path class="st0" d="M99.6,197.1C45.8,197.1,2,153.3,2,99.5C2,45.7,45.8,1.9,99.6,1.9c53.8,0,97.6,43.8,97.6,97.6
			C197.2,153.3,153.5,197.1,99.6,197.1L99.6,197.1z M99.6,18.6c-44.6,0-80.9,36.3-80.9,80.9s36.3,80.9,80.9,80.9
			s80.9-36.3,80.9-80.9S144.2,18.6,99.6,18.6L99.6,18.6z"/>
	</g>
	<g>
		<path class="st0" d="M99.6,107.9c-4.6,0-8.4-3.7-8.4-8.4V39.1c0-4.6,3.7-8.4,8.4-8.4c4.6,0,8.4,3.7,8.4,8.4v60.4
			C108,104.1,104.3,107.9,99.6,107.9L99.6,107.9z"/>
	</g>
	<g>
		<path class="st0" d="M99.6,24c-4.6,0-8.4-3.7-8.4-8.4v-5.4c0-4.6,3.7-8.4,8.4-8.4c4.6,0,8.4,3.7,8.4,8.4v5.4
			C108,20.3,104.3,24,99.6,24L99.6,24z"/>
	</g>
	<g>
		<path class="st0" d="M99.6,197.1c-4.6,0-8.4-3.7-8.4-8.4v-5.4c0-4.6,3.7-8.4,8.4-8.4c4.6,0,8.4,3.7,8.4,8.4v5.4
			C108,193.4,104.3,197.1,99.6,197.1L99.6,197.1z"/>
	</g>
	<g>
		<path class="st0" d="M188.9,107.9h-5.4c-4.6,0-8.4-3.7-8.4-8.4c0-4.6,3.7-8.4,8.4-8.4h5.4c4.6,0,8.4,3.7,8.4,8.4
			C197.2,104.1,193.5,107.9,188.9,107.9L188.9,107.9z"/>
	</g>
	<g>
		<path class="st0" d="M15.8,107.9h-5.4c-4.6,0-8.4-3.7-8.4-8.4c0-4.6,3.7-8.4,8.4-8.4h5.4c4.6,0,8.4,3.7,8.4,8.4
			C24.2,104.1,20.4,107.9,15.8,107.9L15.8,107.9z"/>
	</g>
	<g>
		<g>
			<g>
				<path class="st0" d="M137.7,37.8c-0.7,0-1.4-0.2-2.1-0.6c-2-1.2-2.7-3.7-1.6-5.7l2.5-4.3c1.2-2,3.7-2.7,5.7-1.5
					c2,1.2,2.7,3.7,1.5,5.7l-2.5,4.3C140.5,37,139.1,37.8,137.7,37.8L137.7,37.8z"/>
			</g>
			<g>
				<path class="st0" d="M59.1,173.9c-0.7,0-1.4-0.2-2.1-0.6c-2-1.1-2.7-3.7-1.6-5.7l2.5-4.3c1.2-2,3.7-2.7,5.7-1.5
					c2,1.1,2.7,3.7,1.5,5.7l-2.5,4.3C62,173.1,60.6,173.9,59.1,173.9L59.1,173.9z"/>
			</g>
			<g>
				<path class="st0" d="M169.8,144.2c-0.7,0-1.4-0.2-2.1-0.6l-4.2-2.4c-2-1.1-2.7-3.7-1.6-5.7c1.2-2,3.7-2.7,5.7-1.5l4.2,2.4
					c2,1.1,2.7,3.7,1.5,5.7C172.7,143.4,171.3,144.2,169.8,144.2L169.8,144.2z"/>
			</g>
			<g>
				<path class="st0" d="M33.7,65.6c-0.7,0-1.4-0.2-2.1-0.6l-4.3-2.5c-2-1.1-2.7-3.7-1.6-5.7c1.1-2,3.7-2.7,5.7-1.6l4.3,2.5
					c2,1.1,2.7,3.7,1.6,5.7C36.6,64.9,35.2,65.6,33.7,65.6L33.7,65.6z"/>
			</g>
		</g>
		<g>
			<g>
				<path class="st0" d="M61.6,37.8c-1.4,0-2.8-0.8-3.6-2.1l-2.5-4.3c-1.1-2-0.5-4.6,1.6-5.7c2-1.1,4.5-0.5,5.7,1.5l2.5,4.3
					c1.2,2,0.5,4.6-1.5,5.7C63,37.6,62.3,37.8,61.6,37.8L61.6,37.8z"/>
			</g>
			<g>
				<path class="st0" d="M140.2,173.9c-1.4,0-2.8-0.7-3.6-2.1l-2.5-4.3c-1.2-2-0.5-4.6,1.5-5.7c2-1.2,4.5-0.5,5.7,1.5l2.5,4.3
					c1.2,2,0.5,4.6-1.5,5.7C141.6,173.7,140.9,173.9,140.2,173.9L140.2,173.9z"/>
			</g>
			<g>
				<path class="st0" d="M29.4,144.2c-1.5,0-2.9-0.8-3.6-2.1c-1.1-2-0.4-4.6,1.6-5.7l4.3-2.4c2-1.1,4.5-0.4,5.7,1.6
					c1.1,2,0.4,4.6-1.6,5.7l-4.3,2.4C30.9,144,30.1,144.2,29.4,144.2L29.4,144.2z"/>
			</g>
			<g>
				<path class="st0" d="M165.6,65.6c-1.4,0-2.8-0.8-3.6-2.1c-1.2-2-0.5-4.6,1.5-5.7l4.2-2.5c2-1.2,4.6-0.5,5.7,1.5
					c1.2,2,0.5,4.6-1.5,5.7l-4.2,2.5C167,65.4,166.3,65.6,165.6,65.6L165.6,65.6z"/>
			</g>
		</g>
	</g>
	<g>
		<path class="st0" d="M74.4,133.1c-2.1,0-4.3-0.8-5.9-2.5c-3.3-3.3-3.3-8.6,0-11.8l24.3-24.3c3.3-3.3,8.6-3.3,11.8,0
			c3.3,3.3,3.3,8.6,0,11.8l-24.3,24.3C78.6,132.3,76.5,133.1,74.4,133.1L74.4,133.1z"/>
	</g>
</g>
</svg>
