<?xml version="1.0" encoding="utf-8"?>
<!-- Generator: Adobe Illustrator 19.1.0, SVG Export Plug-In . SVG Version: 6.00 Build 0)  -->
<svg version="1.1" id="Layer_1" xmlns="http://www.w3.org/2000/svg" xmlns:xlink="http://www.w3.org/1999/xlink" x="0px" y="0px"
	 viewBox="0 0 200 200" style="enable-background:new 0 0 200 200;" xml:space="preserve">
<style type="text/css">
	.st0{fill:#343434;}
</style>
<g>
	<g>
		<path class="st0" d="M145,84.1H80.9c-2.3,0-4.2-1.9-4.2-4.2V43.7c0-2.3,1.9-4.2,4.2-4.2H145c2.3,0,4.2,1.9,4.2,4.2v36.3
			C149.2,82.2,147.3,84.1,145,84.1L145,84.1z M85.1,75.7h55.8V47.8H85.1V75.7L85.1,75.7z"/>
	</g>
	<g>
		<g>
			<path class="st0" d="M180.2,198.8H36.7c-4.6,0-8.4-3.7-8.4-8.4V10c0-4.6,3.7-8.4,8.4-8.4h143.5c4.6,0,8.4,3.7,8.4,8.4v180.4
				C188.6,195.1,184.8,198.8,180.2,198.8L180.2,198.8z M45,182.1h126.8V18.4H45V182.1L45,182.1z"/>
		</g>
		<g>
			<path class="st0" d="M51.3,52.1H22c-4.6,0-8.4-3.7-8.4-8.4s3.7-8.4,8.4-8.4h29.3c4.6,0,8.4,3.7,8.4,8.4S55.9,52.1,51.3,52.1
				L51.3,52.1z"/>
		</g>
		<g>
			<path class="st0" d="M51.3,89.5H22c-4.6,0-8.4-3.7-8.4-8.4c0-4.6,3.7-8.4,8.4-8.4h29.3c4.6,0,8.4,3.7,8.4,8.4
				C59.7,85.7,55.9,89.5,51.3,89.5L51.3,89.5z"/>
		</g>
		<g>
			<path class="st0" d="M51.3,126.8H22c-4.6,0-8.4-3.7-8.4-8.4s3.7-8.4,8.4-8.4h29.3c4.6,0,8.4,3.7,8.4,8.4S55.9,126.8,51.3,126.8
				L51.3,126.8z"/>
		</g>
		<g>
			<path class="st0" d="M51.3,164.2H22c-4.6,0-8.4-3.7-8.4-8.4c0-4.6,3.7-8.4,8.4-8.4h29.3c4.6,0,8.4,3.7,8.4,8.4
				C59.7,160.4,55.9,164.2,51.3,164.2L51.3,164.2z"/>
		</g>
	</g>
</g>
</svg>
