<?xml version="1.0" encoding="utf-8"?>
<!-- Generator: Adobe Illustrator 19.1.0, SVG Export Plug-In . SVG Version: 6.00 Build 0)  -->
<svg version="1.1" id="Layer_1" xmlns="http://www.w3.org/2000/svg" xmlns:xlink="http://www.w3.org/1999/xlink" x="0px" y="0px"
	 viewBox="0 0 200 200" style="enable-background:new 0 0 200 200;" xml:space="preserve">
<style type="text/css">
	.st0{fill:#343434;}
</style>
<g>
	<g>
		<path class="st0" d="M170.2,197.2H53.4c-4.6,0-8.3-3.7-8.3-8.3c0-4.6,3.7-8.3,8.3-8.3h116.8c0.5,0,0.8-0.4,0.8-0.8V18.7
			c0-0.4-0.4-0.8-0.8-0.8H53.4c-0.5,0-0.8,0.4-0.8,0.8v145c0,4.6-3.7,8.3-8.3,8.3c-4.6,0-8.3-3.7-8.3-8.3v-145
			c0-9.5,7.8-17.3,17.3-17.3h116.8c9.6,0,17.3,7.8,17.3,17.3v161.1C187.5,189.4,179.8,197.2,170.2,197.2L170.2,197.2z"/>
	</g>
	<g>
		<path class="st0" d="M103.1,81.4H67.4c-2.3,0-4.1-1.8-4.1-4.1c0-2.3,1.8-4.1,4.1-4.1h35.7c2.3,0,4.1,1.8,4.1,4.1
			C107.3,79.5,105.4,81.4,103.1,81.4L103.1,81.4z"/>
	</g>
	<g>
		<path class="st0" d="M103.1,102.7H67.4c-2.3,0-4.1-1.8-4.1-4.1c0-2.3,1.8-4.1,4.1-4.1h35.7c2.3,0,4.1,1.8,4.1,4.1
			C107.3,100.9,105.4,102.7,103.1,102.7L103.1,102.7z"/>
	</g>
	<g>
		<path class="st0" d="M103.1,124H67.4c-2.3,0-4.1-1.8-4.1-4.1c0-2.3,1.8-4.1,4.1-4.1h35.7c2.3,0,4.1,1.8,4.1,4.1
			C107.3,122.2,105.4,124,103.1,124L103.1,124z"/>
	</g>
	<g>
		<path class="st0" d="M103.1,145.3H67.4c-2.3,0-4.1-1.8-4.1-4.1c0-2.3,1.8-4.1,4.1-4.1h35.7c2.3,0,4.1,1.8,4.1,4.1
			C107.3,143.5,105.4,145.3,103.1,145.3L103.1,145.3z"/>
	</g>
	<g>
		<path class="st0" d="M103.1,166.7H67.4c-2.3,0-4.1-1.8-4.1-4.1c0-2.3,1.8-4.1,4.1-4.1h35.7c2.3,0,4.1,1.8,4.1,4.1
			C107.3,164.8,105.4,166.7,103.1,166.7L103.1,166.7z"/>
	</g>
	<g>
		<path class="st0" d="M154.1,81.4h-35.7c-2.3,0-4.1-1.8-4.1-4.1c0-2.3,1.8-4.1,4.1-4.1h35.7c2.3,0,4.1,1.8,4.1,4.1
			C158.3,79.5,156.4,81.4,154.1,81.4L154.1,81.4z"/>
	</g>
	<g>
		<path class="st0" d="M154.1,102.7h-35.7c-2.3,0-4.1-1.8-4.1-4.1c0-2.3,1.8-4.1,4.1-4.1h35.7c2.3,0,4.1,1.8,4.1,4.1
			C158.3,100.9,156.4,102.7,154.1,102.7L154.1,102.7z"/>
	</g>
	<g>
		<path class="st0" d="M154.1,124h-35.7c-2.3,0-4.1-1.8-4.1-4.1c0-2.3,1.8-4.1,4.1-4.1h35.7c2.3,0,4.1,1.8,4.1,4.1
			C158.3,122.2,156.4,124,154.1,124L154.1,124z"/>
	</g>
	<g>
		<path class="st0" d="M154.1,145.3h-35.7c-2.3,0-4.1-1.8-4.1-4.1c0-2.3,1.8-4.1,4.1-4.1h35.7c2.3,0,4.1,1.8,4.1,4.1
			C158.3,143.5,156.4,145.3,154.1,145.3L154.1,145.3z"/>
	</g>
	<g>
		<path class="st0" d="M154.1,166.7h-35.7c-2.3,0-4.1-1.8-4.1-4.1c0-2.3,1.8-4.1,4.1-4.1h35.7c2.3,0,4.1,1.8,4.1,4.1
			C158.3,164.8,156.4,166.7,154.1,166.7L154.1,166.7z"/>
	</g>
	<g>
		<path class="st0" d="M100.2,197.2H30.7c-9.5,0-17.3-7.8-17.3-17.3V43.9c0-4.4,0.3-9.3,4-13.1c4.2-4.2,9.6-4.3,18.9-4.2l4.7,0
			c0,0,0,0,0.1,0c4.5,0,8.2,3.7,8.3,8.2c0,4.6-3.6,8.3-8.2,8.3l-4.9,0c-2.3,0-4.7,0-6.4,0.1c0,0.2,0,0.5,0,0.7v135.9
			c0,0.4,0.4,0.8,0.8,0.8h69.5c4.6,0,8.3,3.7,8.3,8.3C108.5,193.5,104.8,197.2,100.2,197.2L100.2,197.2z"/>
	</g>
	<g>
		<path class="st0" d="M154.1,58.6H67.9c-2.3,0-4.1-1.8-4.1-4.1V32c0-2.3,1.8-4.1,4.1-4.1h86.2c2.3,0,4.1,1.8,4.1,4.1v22.5
			C158.3,56.8,156.4,58.6,154.1,58.6L154.1,58.6z M72.1,50.3H150V36.1H72.1V50.3L72.1,50.3z"/>
	</g>
</g>
</svg>
