<?xml version="1.0" encoding="utf-8"?>
<!-- Generator: Adobe Illustrator 19.1.0, SVG Export Plug-In . SVG Version: 6.00 Build 0)  -->
<svg version="1.1" id="Layer_1" xmlns="http://www.w3.org/2000/svg" xmlns:xlink="http://www.w3.org/1999/xlink" x="0px" y="0px"
	 viewBox="0 0 200 200" style="enable-background:new 0 0 200 200;" xml:space="preserve">
<style type="text/css">
	.st0{fill:#343434;}
</style>
<g>
	<g>
		<path class="st0" d="M189.9,192.3H10c-4.8,0-8.8-3.9-8.8-8.8V25.3c0-9.7,7.9-17.5,17.5-17.5h61.4c9.7,0,17.5,7.9,17.5,17.5v6.3
			h92.3c4.8,0,8.8,3.9,8.8,8.8v143.1C198.7,188.3,194.7,192.3,189.9,192.3L189.9,192.3z M18.7,174.7h162.4V49.1H88.8
			c-4.8,0-8.8-3.9-8.8-8.8V25.3H18.7V174.7L18.7,174.7z"/>
	</g>
	<g>
		<path class="st0" d="M189.4,81.9H9.7c-4.8,0-8.8-3.9-8.8-8.8c0-4.8,3.9-8.8,8.8-8.8h179.7c4.8,0,8.8,3.9,8.8,8.8
			C198.2,77.9,194.2,81.9,189.4,81.9L189.4,81.9z"/>
	</g>
</g>
</svg>
