<?xml version="1.0" encoding="utf-8"?>
<!-- Generator: Adobe Illustrator 19.1.0, SVG Export Plug-In . SVG Version: 6.00 Build 0)  -->
<svg version="1.1" id="Layer_1" xmlns="http://www.w3.org/2000/svg" xmlns:xlink="http://www.w3.org/1999/xlink" x="0px" y="0px"
	 viewBox="0 0 25 25" style="enable-background:new 0 0 25 25;" xml:space="preserve">
<style type="text/css">
	.st0{fill:#FFFFFF;}
</style>
<g>
	<g>
		<path class="st0" d="M6,24.2c-0.1,0-0.3,0-0.4-0.1c-0.3-0.2-0.7-0.6-0.7-1v-3H2.3c-1.2,0-2.2-1-2.2-2.2V5.3c0-1.2,1-2.2,2.2-2.2
			h20.3c1.2,0,2.2,1,2.2,2.2v12.5c0,1.2-1,2.2-2.2,2.2h-11l-5,3.9C6.5,24.1,6.2,24.2,6,24.2L6,24.2z M2.3,5.3v12.5H6
			c0.7,0,1.1,0.4,1.1,1.1v1.9l3.4-2.8c0.2-0.1,0.4-0.2,0.7-0.2h11.4V5.3H2.3L2.3,5.3z"/>
	</g>
	<g>
		<path class="st0" d="M8.1,9.1H5.3v1.7h2.2c0.2,0,0.3,0,0.4,0.1c0.1,0.1,0.1,0.2,0.1,0.3c0,0.1,0,0.3-0.1,0.3
			c-0.1,0.1-0.2,0.1-0.4,0.1H5.3v2.2c0,0.3-0.1,0.4-0.2,0.7c-0.1,0.1-0.3,0.2-0.4,0.2c-0.2,0-0.3-0.1-0.4-0.2
			C4.1,14.4,4,14.3,4,14.1V8.9c0-0.2,0-0.3,0.1-0.4s0.1-0.2,0.2-0.2c0.1-0.1,0.3-0.1,0.4-0.1H8c0.2,0,0.3,0,0.4,0.1
			c0.2,0,0.3,0.1,0.3,0.3c0,0.1,0,0.3-0.1,0.3C8.4,9,8.3,9.1,8.1,9.1z"/>
		<path class="st0" d="M12.9,14l-0.3-0.9H9.8L9.6,14c-0.1,0.3-0.2,0.6-0.3,0.7c-0.1,0.1-0.2,0.2-0.4,0.2s-0.3-0.1-0.4-0.2
			c-0.1-0.1-0.2-0.2-0.2-0.4c0-0.1,0-0.2,0-0.3s0.1-0.2,0.1-0.4L10,9c0-0.1,0.1-0.3,0.2-0.4c0.1-0.2,0.1-0.3,0.2-0.4
			c0.1-0.1,0.2-0.2,0.3-0.3c0.1-0.1,0.3-0.1,0.4-0.1c0.2,0,0.3,0,0.4,0.1c0.1,0.1,0.2,0.1,0.3,0.3c0.1,0.1,0.1,0.2,0.2,0.3
			c0,0.1,0.1,0.3,0.2,0.6l1.8,4.3c0.1,0.3,0.2,0.6,0.2,0.8c0,0.1-0.1,0.3-0.2,0.4c-0.1,0.1-0.3,0.2-0.4,0.2s-0.2,0-0.3-0.1
			c-0.1,0-0.1-0.1-0.2-0.1c0-0.1-0.1-0.2-0.2-0.3C13,14.2,13,14.1,12.9,14z M10.2,12.1h2l-1-2.8L10.2,12.1z"/>
		<path class="st0" d="M20.2,13.9c0.2,0.1,0.4,0.2,0.7,0.4c0.2,0.1,0.4,0.2,0.4,0.3c0.1,0.1,0.1,0.2,0.1,0.3c0,0.1,0,0.2-0.1,0.3
			c-0.1,0.1-0.2,0.1-0.3,0.1c-0.1,0-0.2,0-0.3-0.1c-0.1-0.1-0.3-0.2-0.6-0.3c-0.2-0.1-0.4-0.3-0.7-0.4c-0.4,0.2-1,0.3-1.7,0.3
			c-0.6,0-1-0.1-1.4-0.2c-0.4-0.2-0.8-0.4-1-0.8c-0.3-0.3-0.4-0.7-0.7-1.1c-0.1-0.4-0.2-0.9-0.2-1.4s0.1-1,0.2-1.4
			c0.1-0.4,0.3-0.8,0.7-1.1c0.3-0.3,0.7-0.6,1-0.7c0.4-0.1,0.9-0.2,1.3-0.2c0.7,0,1.3,0.1,1.8,0.4C20,8.6,20.3,9,20.5,9.5
			c0.2,0.6,0.3,1.1,0.3,1.9C21.1,12.4,20.8,13.3,20.2,13.9z M19.1,13.2c0.2-0.2,0.3-0.4,0.4-0.8s0.1-0.7,0.1-1
			c0-0.4-0.1-0.9-0.2-1.3c-0.1-0.3-0.3-0.7-0.7-0.8c-0.3-0.2-0.7-0.3-1-0.3c-0.2,0-0.6,0-0.8,0.1c-0.2,0.1-0.4,0.2-0.6,0.4
			c-0.2,0.2-0.3,0.4-0.4,0.8c-0.1,0.3-0.1,0.7-0.1,1c0,0.8,0.2,1.3,0.6,1.8c0.3,0.4,0.8,0.7,1.3,0.7c0.2,0,0.4,0,0.7-0.1
			c-0.1-0.1-0.3-0.2-0.6-0.3c-0.2-0.1-0.3-0.2-0.4-0.2c0-0.1-0.1-0.2-0.1-0.2c0-0.1,0-0.2,0.1-0.2c0.1-0.1,0.1-0.1,0.2-0.1
			C18,12.4,18.4,12.6,19.1,13.2z"/>
	</g>
</g>
</svg>
